:SAMPLES-PER-SECOND 30
:FULLY-SPECIFIED
:DEGREES
609
root  5.70531 36.4148 -0.252397 166.342 -73.3816 -162.723
RightUpLeg  -24.8244 -5.84307 -11.9102
RightLeg  7.25541 7.92116 -1.31881
RightFoot  14.358 -5.5139 24.2839
RightToes  -2.32832e-010 0 -3.6325e-017
Spine  30.707 -4.44477 -16.8203
Spine1  2.07151 -12.306 17.1386
HEad  -43.25 36.8446 -18.8973
LeftShoulder1  0.0520049 0.0188522 7.95367
LeftArm  -30.4801 -40.0966 -8.2022
LeftForeArm  22.4554 3.45184 -8.88458
LeftHand  -0.222306 -1.53283 3.79016
RightShoulder  0.775443 0.270905 13.6858
RightArm  -22.1623 -32.9296 38.2481
RightForeArm  4.03076 7.28762 9.6048
RightHand  -0.196552 -3.97277 -15.1704
LeftUpLeg  -5.73203 15.4427 32.4514
LeftLeg  21.9264 10.614 5.00459
LeftFoot  -2.83592 2.69754 -35.0088
LeftToes  2.2737e-010 4.38529e-011 2.18788e-011
610
root  5.52272 36.5163 -0.598559 156.962 -73.9274 -152.831
RightUpLeg  -23.9563 -5.54498 -9.75038
RightLeg  7.41797 5.88459 -0.894524
RightFoot  13.6198 -5.19846 23.6149
RightToes  -2.32832e-010 0 -3.6325e-017
Spine  29.6671 -3.65646 -16.4877
Spine1  1.90561 -12.0435 21.6079
HEad  -40.6077 36.6825 -18.0033
LeftShoulder1  0.0916491 -0.969644 7.32797
LeftArm  -28.1845 -40.5563 -10.4017
LeftForeArm  28.0573 -2.17993 -9.67411
LeftHand  -0.689362 -5.77946 7.16229
RightShoulder  0.749405 0.195976 13.3709
RightArm  -18.1656 -33.9027 36.4512
RightForeArm  5.53029 10.81 9.51044
RightHand  -0.167117 -4.06003 -13.5778
LeftUpLeg  -5.44558 14.3214 35.3565
LeftLeg  19.8111 10.9013 4.65685
LeftFoot  -1.69058 3.07496 -35.2454
LeftToes  2.2737e-010 4.38529e-011 2.18788e-011
611
root  5.39237 36.3992 -1.02928 145.217 -75.2092 -141.604
RightUpLeg  -24.0412 -5.49932 -8.77604
RightLeg  11.9853 3.56259 0.199121
RightFoot  10.7659 -4.65814 23.9293
RightToes  -2.32832e-010 0 -3.6325e-017
Spine  29.821 -3.10791 -16.6494
Spine1  1.41229 -12.1703 25.5442
HEad  -38.3559 36.1526 -16.7159
LeftShoulder1  0.155515 -2.04369 6.44524
LeftArm  -26.3056 -41.5666 -11.363
LeftForeArm  31.8523 -5.7607 -10.2118
LeftHand  -1.70842 -6.4722 17.1837
RightShoulder  0.775053 0.280197 13.6138
RightArm  -10.2275 -34.5177 35.318
RightForeArm  3.08203 15.7537 8.07598
RightHand  -0.0883595 -4.67784 -11.8121
LeftUpLeg  -5.87217 13.7974 38.1809
LeftLeg  19.2585 8.95314 3.77936
LeftFoot  -1.59732 3.08528 -35.0341
LeftToes  2.2737e-010 4.38529e-011 2.18788e-011
612
root  5.28699 36.0637 -1.42812 126.939 -77.2069 -124.951
RightUpLeg  -23.8707 -7.92958 -8.17473
RightLeg  18.9191 2.85105 0.940891
RightFoot  6.58861 -3.91054 24.7238
RightToes  -2.32832e-010 0 -3.6325e-017
Spine  30.7621 -3.19398 -16.659
Spine1  1.92087 -13.1677 28.6017
HEad  -37.4087 34.9129 -15.2026
LeftShoulder1  0.184945 -2.93056 6.35188
LeftArm  -26.8542 -43.8266 -11.7637
LeftForeArm  33.0933 -4.7354 -10.0861
LeftHand  -2.03287 -3.50713 26.4756
RightShoulder  0.832627 0.416259 14.4576
RightArm  -3.6036 -34.9014 35.3417
RightForeArm  1.08754 22.9195 5.40348
RightHand  0.0429057 -6.4452 -8.48594
LeftUpLeg  -7.86468 11.2302 40.3884
LeftLeg  21.2054 6.5642 3.12632
LeftFoot  -2.49895 2.80606 -35.055
LeftToes  2.2737e-010 4.38529e-011 2.18788e-011
613
root  5.14293 35.5802 -1.77116 102.784 -78.5845 -104.047
RightUpLeg  -22.2303 -10.6481 -8.48266
RightLeg  26.4845 2.54785 1.14959
RightFoot  2.303 -2.98338 24.6801
RightToes  -2.32832e-010 0 -3.6325e-017
Spine  31.4205 -3.40567 -16.9085
Spine1  5.51947 -15.0965 30.6076
HEad  -38.2752 33.0681 -14.8021
LeftShoulder1  0.122696 -4.07161 7.76596
LeftArm  -29.8094 -45.3622 -12.4027
LeftForeArm  32.903 0.0605711 -9.08417
LeftHand  -1.5771 -1.14117 27.5913
RightShoulder  0.821535 0.263269 15.0881
RightArm  -7.69578 -34.3425 36.6732
RightForeArm  12.4973 31.7604 6.2013
RightHand  0.0350979 -8.48258 -3.01237
LeftUpLeg  -9.44672 6.89101 41.9662
LeftLeg  24.3121 4.30526 2.45644
LeftFoot  -3.90973 2.40918 -35.6405
LeftToes  2.2737e-010 4.38529e-011 2.18788e-011
614
root  4.96176 35.0427 -2.10649 84.7361 -79.2326 -90.7085
RightUpLeg  -19.5263 -10.8715 -10.0361
RightLeg  33.6556 1.67797 0.949333
RightFoot  -1.08131 -2.13907 23.4278
RightToes  -2.32832e-010 0 -3.6325e-017
Spine  31.4113 -2.91974 -18.272
Spine1  11.7273 -17.0735 31.1838
HEad  -40.0361 31.2297 -16.3133
LeftShoulder1  0.0131483 -5.49372 9.50447
LeftArm  -31.4639 -44.0227 -13.2101
LeftForeArm  33.3872 4.99883 -7.85915
LeftHand  -1.3625 -2.16655 21.1765
RightShoulder  0.69927 -0.272883 14.9122
RightArm  -10.9211 -32.027 38.8998
RightForeArm  28.3881 43.0934 8.5683
RightHand  -0.109269 -8.58673 2.56534
LeftUpLeg  -8.27223 3.679 42.8246
LeftLeg  26.868 1.69393 1.27318
LeftFoot  -5.53772 1.93941 -36.4241
LeftToes  2.2737e-010 4.38529e-011 2.18788e-011
615
root  4.82172 34.5353 -2.38879 79.8405 -79.9506 -89.4427
RightUpLeg  -18.2889 -8.87668 -11.2477
RightLeg  39.3007 0.669751 0.31446
RightFoot  -3.3036 -1.59124 22.089
RightToes  -2.32832e-010 0 -3.6325e-017
Spine  31.2134 -2.13357 -19.8029
Spine1  15.8706 -18.0381 31.3091
HEad  -40.5278 30.1293 -18.863
LeftShoulder1  0.0461266 -6.38954 9.13593
LeftArm  -28.8889 -39.8758 -14.3034
LeftForeArm  35.7346 7.25471 -8.00552
LeftHand  -1.13289 -4.56908 13.4063
RightShoulder  0.584578 -0.732372 14.3438
RightArm  -11.4729 -28.8211 39.5331
RightForeArm  44.342 56.3661 13.1873
RightHand  -0.0854358 -6.30945 5.47556
LeftUpLeg  -6.2613 3.74477 43.5358
LeftLeg  29.1438 -1.16398 -0.363592
LeftFoot  -6.98416 1.4943 -36.9371
LeftToes  2.2737e-010 4.38529e-011 2.18788e-011
616
root  4.77664 34.1281 -2.50307 83.0112 -79.9562 -91.8168
RightUpLeg  -21.0258 -7.2383 -10.872
RightLeg  42.6136 -0.138764 -0.426286
RightFoot  -4.78143 -1.29478 21.7919
RightToes  -2.32832e-010 0 -3.6325e-017
Spine  30.8123 -2.26175 -19.8141
Spine1  13.3988 -17.9021 33.4833
HEad  -38.2325 30.1322 -20.8083
LeftShoulder1  0.32792 -6.41493 5.84634
LeftArm  -22.4821 -33.95 -16.1331
LeftForeArm  38.1416 7.27355 -9.7009
LeftHand  -0.66511 -5.0047 7.6404
RightShoulder  0.57263 -0.732194 13.864
RightArm  -12.2422 -26.6455 37.7725
RightForeArm  57.1715 69.8908 24.8508
RightHand  0.0124829 -4.53749 5.94659
LeftUpLeg  -8.21124 6.70379 44.6072
LeftLeg  32.3503 -3.27987 -1.88468
LeftFoot  -7.66413 1.27947 -37.1696
LeftToes  2.2737e-010 4.38529e-011 2.18788e-011
617
root  4.75815 33.8203 -2.46756 86.0553 -79.0755 -89.2504
RightUpLeg  -27.6107 -7.91366 -9.44658
RightLeg  44.029 -0.351061 -0.666816
RightFoot  -5.922 -1.11782 22.4926
RightToes  -2.32832e-010 0 -3.6325e-017
Spine  29.4552 -3.36355 -18.1001
Spine1  5.06983 -16.5485 38.1316
HEad  -33.7066 30.5159 -21.2127
LeftShoulder1  0.683827 -5.95736 1.37825
LeftArm  -15.2704 -26.7771 -18.8948
LeftForeArm  38.5908 7.59774 -11.5436
LeftHand  -0.303475 -3.28082 4.36484
RightShoulder  0.573142 -0.658958 13.2725
RightArm  -16.0365 -26.3631 35.267
RightForeArm  82.6136 79.5907 61.0595
RightHand  0.0192895 -4.42961 5.86267
LeftUpLeg  -15.1485 10.6803 45.1441
LeftLeg  35.9533 -3.86236 -2.63475
LeftFoot  -7.71425 1.2721 -37.4343
LeftToes  2.2737e-010 4.38529e-011 2.18788e-011
618
root  4.68154 33.5786 -2.40551 87.2321 -78.3059 -83.4221
RightUpLeg  -35.0225 -10.5625 -7.94155
RightLeg  44.65 0.289135 -0.00374916
RightFoot  -6.68526 -1.01229 23.4518
RightToes  -2.32832e-010 0 -3.6325e-017
Spine  27.1184 -4.13221 -15.7107
Spine1  -4.01632 -13.6832 42.2502
HEad  -29.2612 29.7585 -20.5627
LeftShoulder1  0.935459 -5.48004 -2.23552
LeftArm  -9.37511 -19.0897 -21.9548
LeftForeArm  37.6218 6.74129 -12.9313
LeftHand  -0.230059 -1.59769 4.00615
RightShoulder  0.480359 -1.0404 12.5738
RightArm  -23.4335 -27.2332 33.3309
RightForeArm  127.918 78.349 123
RightHand  0.0447475 -3.95326 5.70505
LeftUpLeg  -22.8122 13.8446 44.5973
LeftLeg  38.0593 -3.34599 -2.43995
LeftFoot  -8.11515 1.15064 -37.8262
LeftToes  2.2737e-010 4.38529e-011 2.18788e-011
619
root  4.58835 33.4055 -2.36741 87.2659 -77.9798 -78.6744
RightUpLeg  -40.0919 -13.7429 -6.68679
RightLeg  45.0843 1.48168 1.27872
RightFoot  -6.94678 -0.993118 24.2871
RightToes  -2.32832e-010 0 -3.6325e-017
Spine  25.1244 -3.67942 -13.3982
Spine1  -9.97733 -10.1824 43.4275
HEad  -27.1116 27.0902 -20.2592
LeftShoulder1  1.10435 -5.06556 -5.04404
LeftArm  -3.27754 -12.0425 -24.0184
LeftForeArm  35.6682 1.47184 -14.1177
LeftHand  -0.261999 -1.04688 4.84831
RightShoulder  0.359889 -1.63513 12.382
RightArm  -32.7194 -27.8178 31.4042
RightForeArm  134.522 71.2985 146.507
RightHand  0.185436 -1.91125 6.51252
LeftUpLeg  -27.4867 15.1698 43.8096
LeftLeg  38.5009 -2.53943 -1.79598
LeftFoot  -9.34878 0.741442 -38.0785
LeftToes  2.2737e-010 4.38529e-011 2.18788e-011
